<svg width="130" height="25" viewBox="0 0 130 25" fill="none" xmlns="http://www.w3.org/2000/svg">
<mask id="mask0_520_285" style="mask-type:alpha" maskUnits="userSpaceOnUse" x="3" y="2" width="18" height="21">
<path d="M18 16.62C17.24 16.62 16.56 16.92 16.04 17.39L8.91 13.24C8.96 13.01 9 12.78 9 12.54C9 12.3 8.96 12.07 8.91 11.84L15.96 7.73004C16.5 8.23004 17.21 8.54004 18 8.54004C19.66 8.54004 21 7.20004 21 5.54004C21 3.88004 19.66 2.54004 18 2.54004C16.34 2.54004 15 3.88004 15 5.54004C15 5.78004 15.04 6.01004 15.09 6.24004L8.04 10.35C7.5 9.85004 6.79 9.54004 6 9.54004C4.34 9.54004 3 10.88 3 12.54C3 14.2 4.34 15.54 6 15.54C6.79 15.54 7.5 15.23 8.04 14.73L15.16 18.89C15.11 19.1 15.08 19.32 15.08 19.54C15.08 21.15 16.39 22.46 18 22.46C19.61 22.46 20.92 21.15 20.92 19.54C20.92 17.93 19.61 16.62 18 16.62Z" fill="black"/>
</mask>
<g mask="url(#mask0_520_285)">
<rect y="0.5" width="24" height="24" fill="#A9A9A9"/>
</g>
<path d="M29.26 19V6.04H38.989V19H37.954V7.048H30.295V19H29.26ZM45.499 19.27C44.533 19.27 43.714 19.051 43.042 18.613C42.37 18.175 41.857 17.569 41.503 16.795C41.149 16.021 40.972 15.13 40.972 14.122C40.972 13.108 41.152 12.217 41.512 11.449C41.872 10.675 42.388 10.075 43.06 9.649C43.738 9.223 44.551 9.01 45.499 9.01C46.465 9.01 47.284 9.229 47.956 9.667C48.634 10.099 49.147 10.699 49.495 11.467C49.849 12.235 50.026 13.12 50.026 14.122C50.026 15.148 49.849 16.048 49.495 16.822C49.141 17.59 48.625 18.19 47.947 18.622C47.269 19.054 46.453 19.27 45.499 19.27ZM45.499 18.262C46.645 18.262 47.5 17.878 48.064 17.11C48.634 16.342 48.919 15.346 48.919 14.122C48.919 12.874 48.634 11.878 48.064 11.134C47.494 10.39 46.639 10.018 45.499 10.018C44.725 10.018 44.086 10.195 43.582 10.549C43.078 10.897 42.7 11.38 42.448 11.998C42.202 12.61 42.079 13.318 42.079 14.122C42.079 15.37 42.367 16.372 42.943 17.128C43.525 17.884 44.377 18.262 45.499 18.262ZM51.2861 21.16V18.055C51.8441 18.055 52.2461 17.878 52.4921 17.524C52.7441 17.17 52.9481 16.615 53.1041 15.859C53.2061 15.355 53.2901 14.809 53.3561 14.221C53.4281 13.633 53.4881 12.943 53.5361 12.151C53.5901 11.359 53.6441 10.402 53.6981 9.28H59.8541V18.055H60.7631V21.16H59.7551V19H52.3031V21.16H51.2861ZM53.3111 18.055H58.8101V10.225H54.6971C54.6731 10.717 54.6431 11.242 54.6071 11.8C54.5711 12.352 54.5291 12.904 54.4811 13.456C54.4331 14.008 54.3761 14.527 54.3101 15.013C54.2441 15.499 54.1661 15.919 54.0761 16.273C53.9801 16.675 53.8781 17.026 53.7701 17.326C53.6621 17.626 53.5091 17.869 53.3111 18.055ZM66.5755 19.27C65.6455 19.27 64.8415 19.063 64.1635 18.649C63.4855 18.229 62.9605 17.638 62.5885 16.876C62.2165 16.108 62.0305 15.202 62.0305 14.158C62.0305 13.096 62.2135 12.181 62.5795 11.413C62.9515 10.639 63.4735 10.045 64.1455 9.631C64.8235 9.217 65.6275 9.01 66.5575 9.01C67.4995 9.01 68.3035 9.226 68.9695 9.658C69.6415 10.084 70.1515 10.702 70.4995 11.512C70.8535 12.322 71.0215 13.297 71.0035 14.437H69.9235V14.077C69.8935 12.745 69.5935 11.731 69.0235 11.035C68.4535 10.339 67.6375 9.991 66.5755 9.991C65.4775 9.991 64.6285 10.354 64.0285 11.08C63.4345 11.8 63.1375 12.82 63.1375 14.14C63.1375 15.448 63.4345 16.462 64.0285 17.182C64.6285 17.902 65.4715 18.262 66.5575 18.262C67.3075 18.262 67.9615 18.088 68.5195 17.74C69.0835 17.386 69.5305 16.882 69.8605 16.228L70.7965 16.642C70.4065 17.482 69.8425 18.13 69.1045 18.586C68.3665 19.042 67.5235 19.27 66.5755 19.27ZM62.7415 14.437V13.501H70.4185V14.437H62.7415ZM72.0944 19V18.064C72.4604 18.13 72.7364 18.112 72.9224 18.01C73.1084 17.902 73.2434 17.728 73.3274 17.488C73.4174 17.242 73.4894 16.945 73.5434 16.597C73.6454 15.997 73.7354 15.343 73.8134 14.635C73.8914 13.921 73.9634 13.126 74.0294 12.25C74.0954 11.368 74.1614 10.378 74.2274 9.28H80.6624V19H79.6184V10.288H75.2354C75.1874 11.008 75.1334 11.707 75.0734 12.385C75.0194 13.063 74.9594 13.708 74.8934 14.32C74.8334 14.926 74.7674 15.481 74.6954 15.985C74.6294 16.483 74.5574 16.915 74.4794 17.281C74.3894 17.761 74.2664 18.148 74.1104 18.442C73.9604 18.73 73.7294 18.922 73.4174 19.018C73.1054 19.114 72.6644 19.108 72.0944 19ZM90.6777 9.28V19H89.6607V11.017L84.0987 19H83.1897V9.28H84.2067V17.227L89.7687 9.28H90.6777ZM95.9006 19V10.27H92.3816V9.28H100.455V10.27H96.9356V19H95.9006ZM102.165 19L102.156 9.28H103.209V13.078H105.657C105.945 13.078 106.212 13.084 106.458 13.096C106.71 13.108 106.941 13.135 107.151 13.177C107.607 13.255 108.018 13.402 108.384 13.618C108.756 13.834 109.05 14.14 109.266 14.536C109.488 14.926 109.599 15.427 109.599 16.039C109.599 16.861 109.383 17.506 108.951 17.974C108.525 18.442 108.009 18.742 107.403 18.874C107.157 18.928 106.899 18.964 106.629 18.982C106.359 18.994 106.086 19 105.81 19H102.165ZM103.209 18.055H105.675C105.897 18.055 106.149 18.049 106.431 18.037C106.713 18.025 106.956 17.992 107.16 17.938C107.496 17.836 107.805 17.647 108.087 17.371C108.369 17.095 108.51 16.651 108.51 16.039C108.51 15.439 108.375 14.995 108.105 14.707C107.841 14.413 107.481 14.221 107.025 14.131C106.815 14.083 106.593 14.053 106.359 14.041C106.125 14.029 105.897 14.023 105.675 14.023H103.209V18.055ZM115.547 19.27C114.575 19.27 113.756 19.054 113.09 18.622C112.424 18.184 111.917 17.581 111.569 16.813C111.227 16.039 111.05 15.148 111.038 14.14C111.05 13.114 111.23 12.217 111.578 11.449C111.932 10.675 112.442 10.075 113.108 9.649C113.774 9.223 114.59 9.01 115.556 9.01C116.498 9.01 117.326 9.238 118.04 9.694C118.76 10.144 119.258 10.765 119.534 11.557L118.526 11.926C118.28 11.32 117.893 10.852 117.365 10.522C116.837 10.186 116.231 10.018 115.547 10.018C114.779 10.018 114.146 10.195 113.648 10.549C113.15 10.897 112.778 11.38 112.532 11.998C112.286 12.616 112.157 13.33 112.145 14.14C112.163 15.382 112.454 16.381 113.018 17.137C113.588 17.887 114.431 18.262 115.547 18.262C116.237 18.262 116.834 18.103 117.338 17.785C117.848 17.467 118.238 17.005 118.508 16.399L119.534 16.75C119.156 17.572 118.628 18.199 117.95 18.631C117.272 19.057 116.471 19.27 115.547 19.27ZM127.579 19V15.202H125.122C124.852 15.202 124.585 15.19 124.321 15.166C124.063 15.136 123.82 15.1 123.592 15.058C122.932 14.932 122.365 14.644 121.891 14.194C121.423 13.738 121.189 13.099 121.189 12.277C121.189 11.485 121.405 10.849 121.837 10.369C122.275 9.889 122.788 9.574 123.376 9.424C123.658 9.352 123.94 9.31 124.222 9.298C124.51 9.286 124.762 9.28 124.978 9.28H128.614L128.632 19H127.579ZM120.847 19L123.691 14.797H124.888L122.026 19H120.847ZM125.113 14.257H127.579V10.225H125.113C124.951 10.225 124.726 10.231 124.438 10.243C124.15 10.255 123.883 10.3 123.637 10.378C123.427 10.438 123.217 10.546 123.007 10.702C122.797 10.852 122.623 11.056 122.485 11.314C122.347 11.572 122.278 11.887 122.278 12.259C122.278 12.781 122.419 13.198 122.701 13.51C122.983 13.816 123.34 14.023 123.772 14.131C124.018 14.191 124.258 14.227 124.492 14.239C124.732 14.251 124.939 14.257 125.113 14.257Z" fill="#141615"/>
</svg>
